<svg xmlns="http://www.w3.org/2000/svg" width="79.664" height="74.185" viewBox="0 0 79.664 74.185"><g transform="translate(-0.333 -4.809)"><path d="M10.881,82.528q-1.769.35-3.549.64a1.292,1.292,0,0,1-1.359-1.8q.663-1.56,1.215-3.164l.015-.049A51.864,51.864,0,0,0,9.812,66.634,32.234,32.234,0,0,1,0,43.779C0,24.57,17.834,9,39.832,9S79.664,24.57,79.664,43.779,61.83,78.558,39.832,78.558a45.2,45.2,0,0,1-11.686-1.521,68.173,68.173,0,0,1-17.267,5.49Z" transform="translate(0.333 -4.191)" fill="#fff" fill-rule="evenodd"/><circle cx="6.203" cy="6.203" r="6.203" transform="translate(17.354 31.855)" fill="#a741e2"/><ellipse cx="5.877" cy="6.203" rx="5.877" ry="6.203" transform="translate(34.373 31.855)" fill="#a741e2"/><circle cx="6.203" cy="6.203" r="6.203" transform="translate(50.74 31.855)" fill="#a741e2"/></g></svg>