<svg xmlns="http://www.w3.org/2000/svg" width="26.846" height="25" viewBox="0 0 26.846 25"><g transform="translate(-0.333 -4.809)"><path d="M3.667,33.779q-.6.118-1.2.216a.435.435,0,0,1-.458-.606q.223-.526.409-1.066l.005-.016a17.478,17.478,0,0,0,.879-3.883A10.863,10.863,0,0,1,0,20.72C0,14.247,6.01,9,13.423,9s13.423,5.247,13.423,11.72-6.01,11.72-13.423,11.72a15.232,15.232,0,0,1-3.938-.513,22.974,22.974,0,0,1-5.819,1.85Z" transform="translate(0.333 -4.191)" fill="#22d84c" fill-rule="evenodd"/><circle cx="1.453" cy="1.453" r="1.453" transform="translate(6.392 14.481)" fill="#fff"/><ellipse cx="1.377" cy="1.453" rx="1.377" ry="1.453" transform="translate(12.41 14.481)" fill="#fff"/><circle cx="1.453" cy="1.453" r="1.453" transform="translate(18.275 14.481)" fill="#fff"/></g></svg>