<svg xmlns="http://www.w3.org/2000/svg" xmlns:xlink="http://www.w3.org/1999/xlink" width="111.828" height="81.497" viewBox="0 0 111.828 81.497"><defs><filter id="a" x="0" y="0" width="111.828" height="81.497" filterUnits="userSpaceOnUse"><feOffset dy="6" input="SourceAlpha"/><feGaussianBlur stdDeviation="6" result="b"/><feFlood flood-opacity="0.161"/><feComposite operator="in" in2="b"/><feComposite in="SourceGraphic"/></filter></defs><g transform="translate(-1440 -2779.103)"><g transform="matrix(1, 0, 0, 1, 1440, 2779.1)" filter="url(#a)"><path d="M65.3,26.835c-.009,0-.024,0-.033,0a19.248,19.248,0,0,0-1.4-12.427A20.522,20.522,0,0,0,48.153,2.57a20.227,20.227,0,0,0-21.327,12.3,10.152,10.152,0,0,0-3.654-.678A10.532,10.532,0,0,0,12.64,24.726a10.339,10.339,0,0,0,.3,2.408c-2.526-.592-5.294-.526-8.649,2.185A10.694,10.694,0,0,0,0,37.485,10.532,10.532,0,0,0,10.531,47.9H64.793c4.924,0,9.569-3.133,10.72-7.92A10.544,10.544,0,0,0,65.3,26.835Z" transform="translate(18 9.6)" fill="#fff"/></g><g transform="translate(-1 -3)"><path d="M0,0,8.958,7.043,0,14.086" transform="translate(1500.377 2818.973) rotate(-90)" fill="none" stroke="#a741e2" stroke-linecap="round" stroke-linejoin="round" stroke-width="3.5"/><path d="M4875.836-1566.985v14.257" transform="translate(-3368.417 4377)" fill="none" stroke="#a741e2" stroke-linecap="round" stroke-width="3.5"/></g><path d="M0,0,8.958,7.043,0,14.086" transform="translate(1495.463 2821.315) rotate(90)" fill="none" stroke="#a741e2" stroke-linecap="round" stroke-linejoin="round" stroke-width="3.5"/><path d="M4875.836-1566.985v14.257" transform="translate(6364.256 1263.288) rotate(180)" fill="none" stroke="#a741e2" stroke-linecap="round" stroke-width="3.5"/></g></svg>