<svg xmlns="http://www.w3.org/2000/svg" xmlns:xlink="http://www.w3.org/1999/xlink" width="130.167" height="142" viewBox="0 0 130.167 142"><defs><linearGradient id="a" x1="0.065" y1="0.343" x2="0.964" y2="0.727" gradientUnits="objectBoundingBox"><stop offset="0" stop-color="#fff" stop-opacity="0.2"/><stop offset="1" stop-color="#fff" stop-opacity="0"/></linearGradient></defs><g transform="translate(-1)"><path d="M91.045,22.511C78.524,15.748,65.465,1.144,65.338,1A2.931,2.931,0,0,0,62.7.035,2.97,2.97,0,0,0,60.444,1.7c-.064.142-6.731,14.136-16.75,19.9C18.155,30.548,1,53.965,1,79.876,1,114.131,30.2,142,66.083,142s65.083-27.87,65.083-62.124C131.167,54.682,115.422,32.183,91.045,22.511Z" transform="translate(0 0)" fill="#1ba8e1"/><path d="M43.694,23.512C53.713,17.642,60.38,3.387,60.444,3.243a2.976,2.976,0,0,1,2.259-1.7,2.9,2.9,0,0,1,2.635.98c.127.15,13.185,15.025,25.706,21.914,24.1,9.74,39.736,32.255,40.089,57.564,0-.215.033-.423.033-.638,0-25.663-15.745-48.581-40.122-58.433C78.523,16.041,65.465,1.165,65.338,1.015A2.9,2.9,0,0,0,62.7.036a2.976,2.976,0,0,0-2.259,1.7c-.064.144-6.731,14.4-16.75,20.269C18.155,31.116,1,54.97,1,81.362c0,.223.032.437.034.659C1.4,55.969,18.43,32.525,43.694,23.512Z" transform="translate(0 0)" fill="#fff" opacity="0.2"/><path d="M66.083,76C30.425,76,1.4,47.963,1.034,13.377c0,.284-.034.564-.034.848C1,49.117,30.2,77.505,66.083,77.505s65.083-28.389,65.083-63.281c0-.292-.029-.578-.033-.869C130.776,47.952,101.749,76,66.083,76Z" transform="translate(0 64.495)" fill="#010101" opacity="0.1"/><g transform="translate(22.685 63.652)"><path d="M89.374,17.027c-6.068,0-9.629,2.89-15.538,7.675-2.233,1.808-4.942,3.99-8.336,6.5C50.246,16.768,40.728,11,32.12,11,13.487,11,5,23.495,5,35.107A24.133,24.133,0,0,0,29.107,59.214c11.21,0,29.058-14.127,35.729-19.759C69.314,45.028,79.178,56.2,86.361,56.2c9.334,0,15.067-12.286,15.067-21.094C101.428,18.79,93,17.027,89.374,17.027Z" transform="translate(-5 -11)" fill="#fff"/><path d="M17.443,28.817c2.96-4.049,5.562-4.791,9.623-4.791a3.338,3.338,0,0,1,2.543.895,2.23,2.23,0,0,1,.494,1.766,3.011,3.011,0,1,0,5.98.706,8.146,8.146,0,0,0-1.972-6.477A9.223,9.223,0,0,0,27.066,18c-4.767,0-9.823.88-14.484,7.263a3.011,3.011,0,1,0,4.861,3.555Z" transform="translate(30.188 24.187)" fill="#fff"/><path d="M44.777,20.833c-7.639,3.949-23.619,3.328-30.428-.024a3.014,3.014,0,0,0-2.672,5.4c4.3,2.122,11.288,3.352,18.339,3.352,6.474,0,13-1.039,17.527-3.375a3.014,3.014,0,0,0-2.766-5.356Z" transform="translate(20.134 36.757)" fill="#fff"/></g><path d="M91.045,22.511C78.524,15.748,65.465,1.144,65.338,1A2.931,2.931,0,0,0,62.7.035,2.97,2.97,0,0,0,60.444,1.7c-.064.142-6.731,14.136-16.75,19.9C18.155,30.548,1,53.965,1,79.876,1,114.131,30.2,142,66.083,142s65.083-27.87,65.083-62.124C131.167,54.682,115.422,32.183,91.045,22.511Z" transform="translate(0 0)" fill="url(#a)"/></g></svg>