<svg xmlns="http://www.w3.org/2000/svg" width="76.37" height="103.307" viewBox="0 0 76.37 103.307"><g transform="translate(-1543 -2081.298)"><path d="M180.9,166.048c8.444-8.08,23.1-24.638,17.849-38.048,0,0,19.083,18.93,13.731,43.427l0,.012s11.947-8.654,12.58-22.875c9.465,10.486,9.928,35,9.416,40.55-1.593,17.16-14.591,31.193-32.584,31.193a33.367,33.367,0,0,1-22.726-8.839,30.366,30.366,0,0,1-9.858-22.354,21.96,21.96,0,0,1,.949-5.7A38.769,38.769,0,0,1,180.9,166.048Z" transform="translate(1379.19 1958.798)" fill="none" stroke="#fff" stroke-linecap="round" stroke-linejoin="round" stroke-width="11"/><path d="M1558.1,2166.668l-6.64-18.5,4.15-14.679,29.673-40.821,8.3,14.478,2.075,21.114,9.96-8.848,6.848-6.234s7.678,31.772,6.433,33.783-10.79,26.544-10.79,26.544-29.258,6.435-30.5,5.429S1558.1,2166.668,1558.1,2166.668Z" transform="translate(-2.956 -1.722)" fill="#fff"/><path d="M41.639,27.828c.567-.842,1.151-1.713,1.729-2.61a9.278,9.278,0,0,0,1.055-8.992C41.934,10.244,33.61,6.6,30.454,5.7c0,0-1.931-.706-2.769.733s.682,2.682.682,2.682c.878,1.091,2.011,1.988,2.088,3.348.064,1.161-.638,2.415-2.088,3.729-1.007.912-2.112,1.793-3.282,2.727-4.923,3.923-10.5,8.373-10.5,16.793q0,.174,0,.345a13.521,13.521,0,0,0,4.781,9.925,16.777,16.777,0,0,0,11.1,4.068h9.48l-1.17-2.15c-4.755-8.738-1.392-13.738,2.865-20.068ZM34.765,47.063Z" transform="translate(1551.95 2123.596)" fill="#f03232"/></g></svg>