<svg xmlns="http://www.w3.org/2000/svg" width="725.443" height="722.791" viewBox="0 0 725.443 722.791"><g transform="translate(-1194.557 -216.209)"><rect width="180" height="180" rx="17" transform="translate(1740 578)" fill="#a741e2"/><rect width="180" height="180" rx="17" transform="translate(1560 398)" fill="#a741e2"/><g transform="translate(1377 578)" fill="none" stroke="#fff" stroke-width="27"><rect width="180" height="180" rx="17" stroke="none"/><rect x="13.5" y="13.5" width="153" height="153" rx="3.5" fill="none"/></g><rect width="180" height="180" rx="17" transform="translate(1195 758)" fill="#22a6d8"/><path d="M163,0a17,17,0,0,1,17,17V163a17,17,0,0,1-17,17H17A17,17,0,0,1,0,163S-17.118,99.185,39.271,42.07,163,0,163,0Z" transform="translate(1917.557 936.209) rotate(180)" fill="#22a6d8"/><path d="M163,0a17,17,0,0,1,17,17V163a17,17,0,0,1-17,17H17A17,17,0,0,1,0,163S-17.118,99.185,39.271,42.07,163,0,163,0Z" transform="translate(1377 759)" fill="#fff"/><path d="M163,0a17,17,0,0,1,17,17V163a17,17,0,0,1-17,17H17A17,17,0,0,1,0,163S-17.118,99.185,39.271,42.07,163,0,163,0Z" transform="translate(1197 579)" fill="#a741e2"/><g transform="translate(1379 398)" fill="none"><path d="M163,0a17,17,0,0,1,17,17V163a17,17,0,0,1-17,17H17A17,17,0,0,1,0,163S-17.118,99.185,39.271,42.07,163,0,163,0Z" stroke="none"/><path d="M 142.1637878417969 25.208740234375 C 120.1276397705078 25.208740234375 87.72232055664063 31.42500305175781 58.484375 61.03941345214844 C 20.14686584472656 99.87055206298828 23.63336181640625 141.5534210205078 25.49508666992188 153 L 153 153 L 153 25.77137756347656 C 150.4095153808594 25.48873901367188 146.6981811523438 25.208740234375 142.1637878417969 25.208740234375 M 142.163818359375 -1.791275024414063 C 154.9852447509766 -1.791275024414063 163 0 163 0 C 172.3888549804688 0 180 7.611160278320313 180 17 L 180 163 C 180 172.3888397216797 172.3888549804688 180 163 180 L 17 180 C 7.611160278320313 180 0 172.3888397216797 0 163 C 0 163 -17.118408203125 99.18531036376953 39.27074432373047 42.07004547119141 C 76.20040893554688 4.664886474609375 117.8316802978516 -1.791275024414063 142.163818359375 -1.791275024414063 Z" stroke="none" fill="#22a6d8"/></g><g transform="translate(1740 218)" fill="none"><path d="M163,0a17,17,0,0,1,17,17V163a17,17,0,0,1-17,17H17A17,17,0,0,1,0,163S-17.118,99.185,39.271,42.07,163,0,163,0Z" stroke="none"/><path d="M 142.1637878417969 25.208740234375 C 120.1276397705078 25.208740234375 87.72232055664063 31.42500305175781 58.484375 61.03941345214844 C 20.14686584472656 99.87055206298828 23.63336181640625 141.5534210205078 25.49508666992188 153 L 153 153 L 153 25.77137756347656 C 150.4095153808594 25.48873901367188 146.6981811523438 25.208740234375 142.1637878417969 25.208740234375 M 142.163818359375 -1.791275024414063 C 154.9852447509766 -1.791275024414063 163 0 163 0 C 172.3888549804688 0 180 7.611160278320313 180 17 L 180 163 C 180 172.3888397216797 172.3888549804688 180 163 180 L 17 180 C 7.611160278320313 180 0 172.3888397216797 0 163 C 0 163 -17.118408203125 99.18531036376953 39.27074432373047 42.07004547119141 C 76.20040893554688 4.664886474609375 117.8316802978516 -1.791275024414063 142.163818359375 -1.791275024414063 Z" stroke="none" fill="#a741e2"/></g><g transform="translate(1558 758)" fill="none" stroke="#a741e2" stroke-width="27"><circle cx="90" cy="90" r="90" stroke="none"/><circle cx="90" cy="90" r="76.5" fill="none"/></g><g transform="translate(1557 578)" fill="none" stroke="#fff" stroke-width="27"><circle cx="90" cy="90" r="90" stroke="none"/><circle cx="90" cy="90" r="76.5" fill="none"/></g><circle cx="90" cy="90" r="90" transform="translate(1740 398)" fill="#fff"/><circle cx="90" cy="90" r="90" transform="translate(1560 217)" fill="#fff"/></g></svg>