<svg id="_3-instagram" data-name="3-instagram" xmlns="http://www.w3.org/2000/svg" width="64" height="64" viewBox="0 0 64 64">
  <rect id="Rectangle_38" data-name="Rectangle 38" width="64" height="64" rx="11.2" transform="translate(64 64) rotate(180)" fill="#a741e2"/>
  <path id="Path_94" data-name="Path 94" d="M44,56H20A12,12,0,0,1,8,44V20A12,12,0,0,1,20,8H44A12,12,0,0,1,56,20V44A12,12,0,0,1,44,56ZM20,12.8A7.21,7.21,0,0,0,12.8,20V44A7.21,7.21,0,0,0,20,51.2H44A7.21,7.21,0,0,0,51.2,44V20A7.21,7.21,0,0,0,44,12.8Z" fill="#2a2d32"/>
  <path id="Path_95" data-name="Path 95" d="M32,45.6A13.6,13.6,0,1,1,45.6,32,13.6,13.6,0,0,1,32,45.6Zm0-22.4A8.8,8.8,0,1,0,40.8,32,8.8,8.8,0,0,0,32,23.2Z" fill="#2a2d32"/>
  <circle id="Ellipse_19" data-name="Ellipse 19" cx="2.4" cy="2.4" r="2.4" transform="translate(43.2 16.8)" fill="#2a2d32"/>
</svg>
