<svg xmlns="http://www.w3.org/2000/svg" width="36" height="36" viewBox="0 0 36 36">
  <path id="instagram" d="M18,0c-4.89,0-5.5.022-7.421.108A13.285,13.285,0,0,0,6.21.945,8.808,8.808,0,0,0,3.021,3.021,8.8,8.8,0,0,0,.945,6.21a13.259,13.259,0,0,0-.837,4.369C.018,12.5,0,13.11,0,18s.022,5.5.108,7.421A13.291,13.291,0,0,0,.945,29.79a8.828,8.828,0,0,0,2.076,3.189A8.8,8.8,0,0,0,6.21,35.055a13.3,13.3,0,0,0,4.369.837C12.5,35.982,13.11,36,18,36s5.5-.022,7.421-.108a13.317,13.317,0,0,0,4.369-.837,9.2,9.2,0,0,0,5.265-5.265,13.291,13.291,0,0,0,.837-4.369C35.982,23.5,36,22.891,36,18s-.022-5.5-.108-7.421a13.306,13.306,0,0,0-.837-4.369,8.835,8.835,0,0,0-2.076-3.189A8.771,8.771,0,0,0,29.79.945,13.239,13.239,0,0,0,25.421.108C23.5.018,22.89,0,18,0Zm0,3.24c4.8,0,5.377.024,7.275.106a9.924,9.924,0,0,1,3.34.622,5.924,5.924,0,0,1,3.417,3.415,9.925,9.925,0,0,1,.619,3.34c.086,1.9.1,2.469.1,7.275s-.022,5.377-.111,7.275a10.123,10.123,0,0,1-.631,3.34,5.715,5.715,0,0,1-1.349,2.073A5.616,5.616,0,0,1,28.6,32.03a10,10,0,0,1-3.353.619c-1.911.086-2.474.1-7.288.1s-5.379-.022-7.288-.111a10.213,10.213,0,0,1-3.354-.631,5.574,5.574,0,0,1-2.069-1.349,5.466,5.466,0,0,1-1.35-2.07,10.24,10.24,0,0,1-.63-3.353c-.068-1.89-.091-2.474-.091-7.266s.024-5.379.091-7.291a10.2,10.2,0,0,1,.63-3.351,5.325,5.325,0,0,1,1.35-2.071A5.33,5.33,0,0,1,7.312,3.914a9.964,9.964,0,0,1,3.332-.631c1.912-.068,2.475-.09,7.288-.09L18,3.238Zm0,5.517A9.243,9.243,0,1,0,27.243,18,9.243,9.243,0,0,0,18,8.757ZM18,24a6,6,0,1,1,6-6A6,6,0,0,1,18,24ZM29.769,8.393a2.162,2.162,0,0,1-4.32,0,2.16,2.16,0,1,1,4.32,0Z" fill="#a741e2"/>
</svg>
