<svg xmlns="http://www.w3.org/2000/svg" width="142.828" height="142.86" viewBox="0 0 142.828 142.86"><path d="M26.667,45.265a19.1,19.1,0,0,1,37.938-3.156C75,39.686,86,42.3,95.371,51.674L81.248,65.8c-6.536-6.536-13.581-5.2-17.663-1.116a11.835,11.835,0,0,0,0,16.642l31.722,31.722L81.28,127.168c-27.96-27.8-15.845-15.845-31.818-31.785a31.528,31.528,0,0,1-7.906-31.531A18.929,18.929,0,0,1,26.667,45.265Z" transform="translate(-26.476 -26.073)" fill="#7ac043"/><path d="M159.607,82.3,173.73,96.428c3.188-3.189,28.6-28.6,31.786-31.818a11.719,11.719,0,0,1,16.546,0c4.081,4.081,5.42,11.159-1.116,17.662L234.974,96.4c9.947-9.947,12.275-21.552,9.214-32.264A19.149,19.149,0,1,0,222.7,42.453a31.661,31.661,0,0,0-31.339,8C185.526,56.544,168.693,73.25,159.607,82.3Z" transform="translate(-118.13 -26.002)" fill="#f9ae41"/><path d="M312.591,226.512a31.489,31.489,0,0,0-8.385-29.937c-3.762-3.889,1.594,1.5-31.722-31.785l-14.123,14.124L290.147,210.7a11.718,11.718,0,0,1,0,16.546c-4.081,4.081-11.158,5.42-17.663-1.116l-14.027,14.123A31.527,31.527,0,0,0,291.2,249.18a19.107,19.107,0,1,0,21.393-22.667Z" transform="translate(-186.214 -121.687)" fill="#ee4035"/><path d="M125.554,277.668l-14.028-14.123C83.789,291.09,95.458,279.613,79.74,295.362a11.718,11.718,0,0,1-16.546,0c-4.177-4.272-5.388-11.254,1.021-17.662L50.187,263.577c-9.628,9.628-12.115,20.787-9.4,31.34A19.112,19.112,0,1,0,63.8,317.743a31.671,31.671,0,0,0,30.032-8.289c10.233-10.2,3.889-3.954,31.721-31.786Z" transform="translate(-26.053 -189.772)" fill="#4f91cd"/></svg>