<svg xmlns="http://www.w3.org/2000/svg" xmlns:xlink="http://www.w3.org/1999/xlink" width="88.464" height="104.859" viewBox="0 0 88.464 104.859"><defs><filter id="a" x="0" y="0" width="88.464" height="104.859" filterUnits="userSpaceOnUse"><feOffset dy="6" input="SourceAlpha"/><feGaussianBlur stdDeviation="6" result="b"/><feFlood flood-opacity="0.161"/><feComposite operator="in" in2="b"/><feComposite in="SourceGraphic"/></filter></defs><g transform="translate(-236 -2384.141)"><g transform="matrix(1, 0, 0, 1, 236, 2384.14)" filter="url(#a)"><path d="M45.906,22.953H42.627V16.4A16.236,16.236,0,0,0,26.232,0a16.236,16.236,0,0,0-16.4,16.4v6.558H6.558A6.577,6.577,0,0,0,0,29.511V62.3a6.577,6.577,0,0,0,6.558,6.558H45.906A6.577,6.577,0,0,0,52.464,62.3V29.511a6.577,6.577,0,0,0-6.558-6.558ZM26.232,52.464a6.558,6.558,0,1,1,6.558-6.558,6.577,6.577,0,0,1-6.558,6.558ZM36.4,22.953H16.067V16.4a10.165,10.165,0,0,1,20.33,0v6.558Z" transform="translate(18 12)" fill="#fff" fill-rule="evenodd"/></g><circle cx="8" cy="8" r="8" transform="translate(272 2433)" fill="#22d84c"/><path d="M280,2447.6v5.362" transform="translate(-0.168 -0.501)" fill="none" stroke="#22d84c" stroke-linecap="round" stroke-width="6"/></g></svg>