<svg xmlns="http://www.w3.org/2000/svg" xmlns:xlink="http://www.w3.org/1999/xlink" width="142" height="142" viewBox="0 0 142 142"><defs><linearGradient id="a" y1="0.5" x2="1" y2="0.5" gradientUnits="objectBoundingBox"><stop offset="0" stop-color="#6cb7e9"/><stop offset="1" stop-color="#78c3eb"/></linearGradient></defs><g transform="translate(-14 -14)"><g transform="translate(14 14)"><circle cx="71" cy="71" r="71" fill="url(#a)"/></g><g transform="translate(59.119 63.759)"><path d="M95.8,54.6c-1-2.6-5.7-3.6-17-3.6-27.9,0-34-1.3-41.1-8.7a.963.963,0,0,0-1.5,1.2l.9,1.5c2.8,4.8,7,12,31.7,12h4.4c10.9,0,13.1,1.4,13.5,2.2.5,1.2-2.1,3.9-4.4,6.3a39.746,39.746,0,0,0-5.9,7.1,1.227,1.227,0,0,0,.2,1.3,1.421,1.421,0,0,0,.6.2,1.08,1.08,0,0,0,.7-.3c2.5-2.3,5-4.4,7.2-6.2C92.5,61.4,96.9,57.6,95.8,54.6Z" transform="translate(-36.026 -41.986)" fill="#fff"/><path d="M51.4,77.8a5.1,5.1,0,1,0,5.1,5.1A5.121,5.121,0,0,0,51.4,77.8Z" transform="translate(-36.026 -41.986)" fill="#fff"/><path d="M70.2,77.8a5.1,5.1,0,1,0,5.1,5.1A5,5,0,0,0,70.2,77.8Z" transform="translate(-36.026 -41.986)" fill="#fff"/></g></g></svg>