<svg xmlns="http://www.w3.org/2000/svg" xmlns:xlink="http://www.w3.org/1999/xlink" width="174" height="197" viewBox="0 0 174 197"><defs><filter id="a" x="60" y="13" width="109" height="109" filterUnits="userSpaceOnUse"><feOffset dx="6" dy="-6" input="SourceAlpha"/><feGaussianBlur stdDeviation="6" result="b"/><feFlood flood-opacity="0.161"/><feComposite operator="in" in2="b"/><feComposite in="SourceGraphic"/></filter><filter id="c" x="86" y="69" width="88" height="88" filterUnits="userSpaceOnUse"><feOffset dx="6" dy="-6" input="SourceAlpha"/><feGaussianBlur stdDeviation="6" result="d"/><feFlood flood-opacity="0.161"/><feComposite operator="in" in2="d"/><feComposite in="SourceGraphic"/></filter><filter id="e" x="26" y="0" width="88" height="88" filterUnits="userSpaceOnUse"><feOffset dx="6" dy="-6" input="SourceAlpha"/><feGaussianBlur stdDeviation="6" result="f"/><feFlood flood-opacity="0.161"/><feComposite operator="in" in2="f"/><feComposite in="SourceGraphic"/></filter><filter id="g" x="0" y="40" width="139" height="157" filterUnits="userSpaceOnUse"><feOffset dx="6" dy="-6" input="SourceAlpha"/><feGaussianBlur stdDeviation="6" result="h"/><feFlood flood-opacity="0.161"/><feComposite operator="in" in2="h"/><feComposite in="SourceGraphic"/></filter></defs><g transform="translate(-273 -1175)"><g transform="matrix(1, 0, 0, 1, 273, 1175)" filter="url(#a)"><g transform="translate(72 37)" fill="none" stroke="#fff" stroke-width="15"><circle cx="36.5" cy="36.5" r="36.5" stroke="none"/><circle cx="36.5" cy="36.5" r="29" fill="none"/></g></g><g transform="matrix(1, 0, 0, 1, 273, 1175)" filter="url(#c)"><g transform="translate(98 93)" fill="none" stroke="#fff" stroke-width="15"><circle cx="26" cy="26" r="26" stroke="none"/><circle cx="26" cy="26" r="18.5" fill="none"/></g></g><g transform="matrix(1, 0, 0, 1, 273, 1175)" filter="url(#e)"><g transform="translate(38 24)" fill="none" stroke="#fff" stroke-width="15"><circle cx="26" cy="26" r="26" stroke="none"/><circle cx="26" cy="26" r="18.5" fill="none"/></g></g><g transform="matrix(1, 0, 0, 1, 273, 1175)" filter="url(#g)"><rect width="103" height="121" rx="16" transform="translate(12 64)" fill="#fff"/></g><g transform="translate(0 1)"><rect width="57" height="8" rx="4" transform="translate(302 1263)" fill="#22a6d8"/><circle cx="4" cy="4" r="4" transform="translate(363 1263)" fill="#22a6d8"/></g><g transform="translate(0 22)"><rect width="57" height="8" rx="4" transform="translate(302 1263)" fill="#22a6d8"/><circle cx="4" cy="4" r="4" transform="translate(363 1263)" fill="#22a6d8"/></g><g transform="translate(0 43)"><rect width="57" height="8" rx="4" transform="translate(302 1263)" fill="#22a6d8"/><circle cx="4" cy="4" r="4" transform="translate(363 1263)" fill="#22a6d8"/></g><g transform="translate(0 64)"><rect width="57" height="8" rx="4" transform="translate(302 1263)" fill="#22a6d8"/><circle cx="4" cy="4" r="4" transform="translate(363 1263)" fill="#22a6d8"/></g></g></svg>