<svg xmlns="http://www.w3.org/2000/svg" xmlns:xlink="http://www.w3.org/1999/xlink" width="169" height="184" viewBox="0 0 169 184"><defs><filter id="a" x="60" y="0" width="109" height="109" filterUnits="userSpaceOnUse"><feOffset dx="6" dy="-6" input="SourceAlpha"/><feGaussianBlur stdDeviation="6" result="b"/><feFlood flood-opacity="0.161"/><feComposite operator="in" in2="b"/><feComposite in="SourceGraphic"/></filter><filter id="c" x="0" y="27" width="139" height="157" filterUnits="userSpaceOnUse"><feOffset dx="6" dy="-6" input="SourceAlpha"/><feGaussianBlur stdDeviation="6" result="d"/><feFlood flood-opacity="0.161"/><feComposite operator="in" in2="d"/><feComposite in="SourceGraphic"/></filter></defs><g transform="translate(-273 -1188)"><g transform="matrix(1, 0, 0, 1, 273, 1188)" filter="url(#a)"><g transform="translate(72 24)" fill="none" stroke="#fff" stroke-width="15"><circle cx="36.5" cy="36.5" r="36.5" stroke="none"/><circle cx="36.5" cy="36.5" r="29" fill="none"/></g></g><g transform="matrix(1, 0, 0, 1, 273, 1188)" filter="url(#c)"><rect width="103" height="121" rx="16" transform="translate(12 51)" fill="#fff"/></g><g transform="translate(0 1)"><rect width="57" height="8" rx="4" transform="translate(302 1263)" fill="#22a6d8"/><circle cx="4" cy="4" r="4" transform="translate(363 1263)" fill="#22a6d8"/></g><g transform="translate(0 22)"><rect width="57" height="8" rx="4" transform="translate(302 1263)" fill="#22a6d8"/><circle cx="4" cy="4" r="4" transform="translate(363 1263)" fill="#22a6d8"/></g><g transform="translate(0 43)"><rect width="57" height="8" rx="4" transform="translate(302 1263)" fill="#22a6d8"/><circle cx="4" cy="4" r="4" transform="translate(363 1263)" fill="#22a6d8"/></g><g transform="translate(0 64)"><rect width="57" height="8" rx="4" transform="translate(302 1263)" fill="#22a6d8"/><circle cx="4" cy="4" r="4" transform="translate(363 1263)" fill="#22a6d8"/></g></g></svg>