<svg xmlns="http://www.w3.org/2000/svg" width="16.872" height="16.082" viewBox="0 0 16.872 16.082">
  <path id="star-empty" d="M17.845,7.668a.527.527,0,0,0-.426-.359l-5.19-.754L9.909,1.849a.55.55,0,0,0-.946,0L6.642,6.555l-5.19.754a.527.527,0,0,0-.292.9l3.756,3.663-.887,5.172a.528.528,0,0,0,.765.556l4.642-2.442L14.078,17.6a.531.531,0,0,0,.246.06h.014a.529.529,0,0,0,.486-.733l-.867-5.055,3.756-3.663A.526.526,0,0,0,17.845,7.668ZM13.022,11.31a.528.528,0,0,0-.152.467l.753,4.392L9.682,14.1a.53.53,0,0,0-.492,0L5.248,16.169,6,11.777a.528.528,0,0,0-.152-.467L2.66,8.2l4.407-.641a.528.528,0,0,0,.4-.288l1.971-4,1.971,4a.528.528,0,0,0,.4.288l4.407.641Z" transform="translate(-1 -1.579)" fill="#41e255"/>
</svg>
