<svg xmlns="http://www.w3.org/2000/svg" width="18.325" height="16.335" viewBox="0 0 18.325 16.335">
  <path id="Path_48" data-name="Path 48" d="M18.325,6.459a.8.8,0,0,0-.809-.783c-.029,0-.057,0-.085,0l-5.585-.132L9.938.568a.815.815,0,0,0-1.553,0L6.478,5.548.893,5.68c-.028,0-.057,0-.085,0A.8.8,0,0,0,0,6.459a.776.776,0,0,0,.37.657l4.448,3.145L3.231,15.194a.754.754,0,0,0-.091.358.8.8,0,0,0,.809.783.82.82,0,0,0,.5-.17l4.712-2.992,4.712,2.992a.82.82,0,0,0,.5.17.8.8,0,0,0,.808-.783.756.756,0,0,0-.091-.358l-1.587-4.933,4.448-3.145a.777.777,0,0,0,.37-.657" transform="translate(0)" fill="#41e255"/>
</svg>
