<svg xmlns="http://www.w3.org/2000/svg" width="17.201" height="16.406" viewBox="0 0 17.201 16.406">
  <path id="star-half" d="M76.284,41.562l2.657-2.584-3.68-.538-.682-.1-.31-.62-1.644-3.329v9.955l.61.32L76.522,46.4l-.62-3.67-.124-.682Zm4.673-2.708L77.2,42.513l.889,5.169a.8.8,0,0,1-.062.532.38.38,0,0,1-.351.191.924.924,0,0,1-.413-.124l-4.642-2.44-4.642,2.44a.924.924,0,0,1-.414.124.381.381,0,0,1-.351-.191.8.8,0,0,1-.062-.532l.889-5.169-3.763-3.659q-.331-.331-.238-.615t.558-.357l5.189-.755,2.326-4.7q.207-.424.507-.424t.507.424l.478.966,1.848,3.738,5.189.755q.465.072.558.357T80.957,38.854Z" transform="translate(-64.024 -32)" fill="#41e255"/>
</svg>
