<svg xmlns="http://www.w3.org/2000/svg" width="43.201" height="36.001" viewBox="0 0 43.201 36.001">
  <path id="twitter" d="M43.2,7.212a11.61,11.61,0,0,1-1.613,2.311,11.908,11.908,0,0,1-2.914,2.456q.049.385.072.722a26.213,26.213,0,0,1-1.854,10.042A26.442,26.442,0,0,1,26.369,35.82c-5.087,2.918-11.013,3.539-16.472,3.01A18.913,18.913,0,0,1,0,35,18.443,18.443,0,0,0,13.2,31.2c-4.049.1-6.991-2.826-8.38-6.213a5.635,5.635,0,0,0,1.878.1,17.473,17.473,0,0,0,2.119-.289,9.934,9.934,0,0,1-6.021-4.672,10.071,10.071,0,0,1-1.012-4.43,8.461,8.461,0,0,0,4,1.2A10.327,10.327,0,0,1,1.854,10.51,11.817,11.817,0,0,1,2.938,4.755,30.269,30.269,0,0,0,13.221,12.46a21.3,21.3,0,0,0,8.067,1.686,10.781,10.781,0,0,1,1.084-6.839,9.317,9.317,0,0,1,5.562-4.045,8.21,8.21,0,0,1,8.236,2.552A14.659,14.659,0,0,0,41.9,3.695a8.7,8.7,0,0,1-3.949,5.1A25.042,25.042,0,0,0,43.2,7.211Z" transform="translate(0 -2.999)" fill="#33ade1"/>
</svg>
