<svg xmlns="http://www.w3.org/2000/svg" width="93.224" height="94.752" viewBox="0 0 93.224 94.752"><g transform="translate(-2.97 -0.506)"><path d="M89.068,40.073l-3.112-.933H60.8a15.987,15.987,0,1,1-14.107-8.452,16.054,16.054,0,0,1,1.891,0A10.744,10.744,0,0,1,49.6,23.081l6.079-10.551-2.5-8.248A1.775,1.775,0,0,0,51.6,3H41.772a1.775,1.775,0,0,0-1.687,1.253l-2.909,9.618a33.791,33.791,0,0,0-6.923,2.915l-8.726-4.722a1.772,1.772,0,0,0-2.094.321l-7.068,6.907a1.781,1.781,0,0,0-.32,2.1l4.712,8.744a33.933,33.933,0,0,0-2.909,6.907L4.221,39.956a1.777,1.777,0,0,0-1.251,1.69V51.5a1.777,1.777,0,0,0,1.251,1.69L13.907,56.1a33.9,33.9,0,0,0,2.909,6.791l-4.77,9.152a1.78,1.78,0,0,0,.32,2.1l6.952,6.966a1.772,1.772,0,0,0,2.094.321L30.4,76.621a33.848,33.848,0,0,0,6.69,2.74L40,89.183a1.775,1.775,0,0,0,1.687,1.253h9.831A1.775,1.775,0,0,0,53.2,89.183l2.909-9.851a33.791,33.791,0,0,0,6.632-2.74L71.79,81.43a1.772,1.772,0,0,0,2.094-.321l6.952-6.966a1.781,1.781,0,0,0,.32-2.1L76.328,63.01a33.933,33.933,0,0,0,2.763-6.674l9.8-2.915a1.777,1.777,0,0,0,1.251-1.69V41.792a1.778,1.778,0,0,0-1.076-1.72Z" transform="translate(0 4.822)" fill="#fff"/><path d="M38.339,2.366,21.56,31.289a3.755,3.755,0,0,0,3.227,5.867H58.374A3.755,3.755,0,0,0,61.6,31.289L44.822,2.366a3.755,3.755,0,0,0-6.483,0Z" transform="translate(33.941)" fill="#22d84c"/></g></svg>