<svg xmlns="http://www.w3.org/2000/svg" xmlns:xlink="http://www.w3.org/1999/xlink" width="255" height="184" viewBox="0 0 255 184"><defs><filter id="a" x="121" y="0" width="109" height="109" filterUnits="userSpaceOnUse"><feOffset dx="6" dy="-6" input="SourceAlpha"/><feGaussianBlur stdDeviation="6" result="b"/><feFlood flood-opacity="0.161"/><feComposite operator="in" in2="b"/><feComposite in="SourceGraphic"/></filter><filter id="c" x="0" y="65" width="106" height="119" filterUnits="userSpaceOnUse"><feOffset dx="6" dy="-6" input="SourceAlpha"/><feGaussianBlur stdDeviation="6" result="d"/><feFlood flood-opacity="0.161"/><feComposite operator="in" in2="d"/><feComposite in="SourceGraphic"/></filter><filter id="e" x="52" y="27" width="139" height="157" filterUnits="userSpaceOnUse"><feOffset dx="-3" dy="-6" input="SourceAlpha"/><feGaussianBlur stdDeviation="6" result="f"/><feFlood flood-opacity="0.161"/><feComposite operator="in" in2="f"/><feComposite in="SourceGraphic"/></filter><filter id="g" x="149" y="65" width="106" height="119" filterUnits="userSpaceOnUse"><feOffset dx="-3" dy="-6" input="SourceAlpha"/><feGaussianBlur stdDeviation="6" result="h"/><feFlood flood-opacity="0.161"/><feComposite operator="in" in2="h"/><feComposite in="SourceGraphic"/></filter></defs><g transform="translate(-212 -1188)"><g transform="matrix(1, 0, 0, 1, 212, 1188)" filter="url(#a)"><g transform="translate(133 24)" fill="none" stroke="#fff" stroke-width="15"><circle cx="36.5" cy="36.5" r="36.5" stroke="none"/><circle cx="36.5" cy="36.5" r="29" fill="none"/></g></g><g transform="translate(-61 38.292)"><g transform="matrix(1, 0, 0, 1, 273, 1149.71)" filter="url(#c)"><rect width="70" height="83" rx="11" transform="translate(12 89)" fill="#fff"/></g><g transform="translate(296.62 1257.088)"><rect width="39" height="6" rx="3" transform="translate(0.38 -0.381)" fill="#f03232"/><circle cx="3" cy="3" r="3" transform="translate(41.38 -0.381)" fill="#f03232"/></g><g transform="translate(296.62 1271.088)"><rect width="39" height="6" rx="3" transform="translate(0.38 -0.381)" fill="#f03232"/><circle cx="3" cy="3" r="3" transform="translate(41.38 -0.381)" fill="#f03232"/></g><g transform="translate(296.62 1284.797)"><rect width="39" height="6" rx="3" transform="translate(0.38 -0.089)" fill="#f03232"/><circle cx="3" cy="3" r="3" transform="translate(41.38 -0.089)" fill="#f03232"/></g><g transform="translate(296.62 1299.151)"><rect width="39" height="6" rx="3" transform="translate(0.38 -0.443)" fill="#f03232"/><circle cx="3" cy="3" r="3" transform="translate(41.38 -0.443)" fill="#f03232"/></g></g><g transform="matrix(1, 0, 0, 1, 212, 1188)" filter="url(#e)"><rect width="103" height="121" rx="16" transform="translate(73 51)" fill="#fff"/></g><g transform="translate(0 1)"><rect width="57" height="8" rx="4" transform="translate(302 1263)" fill="#f03232"/><circle cx="4" cy="4" r="4" transform="translate(363 1263)" fill="#f03232"/></g><g transform="translate(0 22)"><rect width="57" height="8" rx="4" transform="translate(302 1263)" fill="#f03232"/><circle cx="4" cy="4" r="4" transform="translate(363 1263)" fill="#f03232"/></g><g transform="translate(0 43)"><rect width="57" height="8" rx="4" transform="translate(302 1263)" fill="#f03232"/><circle cx="4" cy="4" r="4" transform="translate(363 1263)" fill="#f03232"/></g><g transform="translate(0 64)"><rect width="57" height="8" rx="4" transform="translate(302 1263)" fill="#f03232"/><circle cx="4" cy="4" r="4" transform="translate(363 1263)" fill="#f03232"/></g><g transform="translate(97 38.292)"><g transform="matrix(1, 0, 0, 1, 115, 1149.71)" filter="url(#g)"><rect width="70" height="83" rx="11" transform="translate(170 89)" fill="#fff"/></g><g transform="translate(296.62 1257.088)"><rect width="39" height="6" rx="3" transform="translate(0.38 -0.381)" fill="#f03232"/><circle cx="3" cy="3" r="3" transform="translate(41.38 -0.381)" fill="#f03232"/></g><g transform="translate(296.62 1271.088)"><rect width="39" height="6" rx="3" transform="translate(0.38 -0.381)" fill="#f03232"/><circle cx="3" cy="3" r="3" transform="translate(41.38 -0.381)" fill="#f03232"/></g><g transform="translate(296.62 1284.797)"><rect width="39" height="6" rx="3" transform="translate(0.38 -0.089)" fill="#f03232"/><circle cx="3" cy="3" r="3" transform="translate(41.38 -0.089)" fill="#f03232"/></g><g transform="translate(296.62 1299.151)"><rect width="39" height="6" rx="3" transform="translate(0.38 -0.443)" fill="#f03232"/><circle cx="3" cy="3" r="3" transform="translate(41.38 -0.443)" fill="#f03232"/></g></g></g></svg>