<svg xmlns="http://www.w3.org/2000/svg" width="142" height="142" viewBox="0 0 142 142"><g transform="translate(-26.054 -26.002)"><path d="M320.6,68.918V61.832L311.117,58.9l-.732-3.46,6.687-6.886-3.46-6.454-9.648,2.5-2.4-2.5,2.5-9.382-6.354-3.859-7.086,6.987-3.56-1.065L284.735,26h-7.519l-2.062,8.783-4.026,1.065-6.554-6.987-6.454,3.66,2.694,9.216-2.694,2.795-9.481-2.5-3.66,6.354,6.887,6.987-.965,3.461-9.482,2.594-.1,7.22,9.581,2.5.8,4.025-6.687,6.621,3.46,6.155,9.847-2.5,2.4,2.861-2.694,8.95,6.621,3.859,6.454-6.787,3.859.965,2.229,9.481,7.518.1,2.229-9.581,3.859-1.165,6.887,7.186,6.787-4.026-2.927-9.315,2.595-2.694,9.581,2.927,3.427-6.687-6.953-6.255.731-4.025ZM280.942,83.956a18.9,18.9,0,1,1,18.9-18.9A18.905,18.905,0,0,1,280.942,83.956Z" transform="translate(-152.545)" fill="#dcdae0"/><path d="M153.188,86.4,168.054,91v12.644l-17.465,4.247-1.3,7.193,12.331,11.186-6.086,12.01-17.116-5.292L133.79,137.8l5.293,16.637-12.139,7.194L114.614,148.8l-6.878,2.09L103.742,168,90.3,167.844l-3.994-16.986-6.878-1.774L67.893,161.252l-11.855-6.877,4.818-16-4.342-5.1-17.592,4.469-6.245-11.029,12.013-11.851-1.522-7.225-17.116-4.469L26.212,90.2,43.17,85.546,44.976,79.3,32.646,66.818l6.561-11.345L56.2,59.942l4.818-4.976L56.2,38.488l11.537-6.559L79.4,44.414l7.2-1.933L90.271,26h13.44l3.676,14.545-7.163-1.869-2-.539-1.046,1.806L93.694,46l-1.046,1.775,1.458,1.458,5.451,5.514-.095.317-7.544,2.06-1.965.538-.032,2.028-.064,4.088a33.526,33.526,0,1,0,39.811,40.055l4.184.064,2.187.032.507-2.123,1.775-7.605.6-.19,5.421,5.641,1.49,1.552,1.838-1.076,6.467-3.835,1.838-1.109-.634-2.06L153.188,86.4Z" fill="#73cb0b"/></g></svg>