<svg xmlns="http://www.w3.org/2000/svg" width="142" height="142" viewBox="0 0 142 142"><path d="M55.088,110.43,31.945,41c2.39-.126,4.779-.377,7.043-.628A2.621,2.621,0,0,0,41.5,37.355a2.536,2.536,0,0,0-2.892-2.138c-6.161.5-11.7.754-16.853.754H19.745A61.982,61.982,0,0,1,111.56,23.9c-3.4.628-6.916,3.018-7.925,6.415-3.016,9.81,2.895,16.225,5.663,20.5,3.016,4.779,4.151,9.938,4.654,15.345.628,7.546-2.517,17.1-4.528,24.4l-6.543,19.494L79.864,41c2.392-.126,4.779-.377,7.045-.628,2.513-.377,2.639-2.138,2.513-3.018a2.454,2.454,0,0,0-2.89-2.138,160.283,160.283,0,0,1-16.73.754,162.551,162.551,0,0,1-16.854-.754,2.624,2.624,0,0,0-2.892,2.138,2.71,2.71,0,0,0,2.515,3.018c2.138.251,4.4.5,6.541.628L69.175,68.421ZM133.2,71.064a62.084,62.084,0,0,1-29.56,52.824L118.1,82.633c2.89-7.8,6.161-15.722,8.046-23.9a55.834,55.834,0,0,0,1.387-13.71A62.089,62.089,0,0,1,133.2,71.064ZM71.064,133.2a61.087,61.087,0,0,1-17.484-2.517L71.818,75.969l19.745,53.7a62.2,62.2,0,0,1-20.5,3.523Zm-28.8-7.046A62.242,62.242,0,0,1,8.8,71.064a61.462,61.462,0,0,1,4.651-23.647ZM71.064,0A71,71,0,1,0,142,71.064,71.068,71.068,0,0,0,71.064,0Z" fill="#0ca3d1" fill-rule="evenodd"/></svg>