<svg xmlns="http://www.w3.org/2000/svg" width="51.188" height="36" viewBox="0 0 51.188 36">
  <path id="youtube" d="M23.307,32.14V17.757l13.827,7.217L23.307,32.14ZM53.673,15.268s-.5-3.53-2.035-5.083a7.325,7.325,0,0,0-5.129-2.167C39.348,7.5,28.6,7.5,28.6,7.5h-.02s-10.744,0-17.906.517a7.325,7.325,0,0,0-5.129,2.167c-1.536,1.553-2.035,5.083-2.035,5.083A77.432,77.432,0,0,0,3,23.552v3.883a77.475,77.475,0,0,0,.512,8.285s.5,3.527,2.035,5.081c1.945,2.041,4.5,1.974,5.644,2.187,4.095.391,17.4.512,17.4.512s10.757-.015,17.918-.532A7.322,7.322,0,0,0,51.641,40.8c1.536-1.553,2.035-5.081,2.035-5.081a77.475,77.475,0,0,0,.512-8.285V23.552a77.391,77.391,0,0,0-.512-8.285Z" transform="translate(-3 -7.5)" fill="#f03232" fill-rule="evenodd"/>
</svg>
